<?xml version="1.0" encoding="UTF-8"?>
<svg width="512" height="512" viewBox="0 0 512 512" fill="none" xmlns="http://www.w3.org/2000/svg">
<path d="M390.72 204.8C384.853 174.933 369.493 148.267 347.307 127.467C322.133 103.467 289.28 89.6 254.72 89.6C203.093 89.6 158.72 117.333 134.4 158.933C96 164.8 62.72 184.533 39.68 212.267C13.8667 243.2 0 281.6 0 322.133C0 371.2 19.3067 415.147 54.4 445.867C89.4933 476.587 134.827 492.8 184.32 492.8H379.733C420.693 492.8 457.173 477.867 484.267 450.773C511.36 423.68 512 389.333 512 358.4C512 289.707 458.24 233.6 390.72 204.8ZM379.733 451.2H184.32C98.1333 451.2 41.6 394.667 41.6 322.133C41.6 250.667 92.8 204.8 158.293 204.8C158.293 204.8 171.093 204.8 175.787 206.933C183.467 131.733 244.48 131.2 254.72 131.2C307.413 131.2 349.44 173.227 349.44 225.92C349.44 225.92 356.693 225.92 379.733 225.92C437.333 225.92 470.4 280.533 470.4 358.4C470.4 436.267 437.333 451.2 379.733 451.2Z" fill="#4285F4"/>
</svg> 