<?xml version="1.0" encoding="UTF-8"?>
<svg width="512" height="512" viewBox="0 0 512 512" fill="none" xmlns="http://www.w3.org/2000/svg">
<path d="M256 51.2C187.733 51.2 143.36 89.6 123.733 166.4C142.933 128 166.4 110.933 194.133 115.2C209.92 117.76 221.44 129.28 234.24 142.08C255.147 163.413 279.467 187.733 332.267 187.733C400.533 187.733 444.907 149.333 464.533 72.5333C445.333 110.933 421.867 128 394.133 123.733C378.347 121.173 366.827 109.653 354.027 96.8533C333.12 75.52 308.8 51.2 256 51.2ZM123.733 187.733C55.4667 187.733 11.0933 226.133 -8.53333 302.933C10.6667 264.533 34.1333 247.467 61.8667 251.733C77.6533 254.293 89.1733 265.813 101.973 278.613C122.88 299.947 147.2 324.267 200 324.267C268.267 324.267 312.64 285.867 332.267 209.067C313.067 247.467 289.6 264.533 261.867 260.267C246.08 257.707 234.56 246.187 221.76 233.387C200.853 212.053 176.533 187.733 123.733 187.733Z" fill="#06B6D4"/>
</svg> 