<?xml version="1.0" encoding="UTF-8"?>
<svg width="512" height="512" viewBox="0 0 512 512" fill="none" xmlns="http://www.w3.org/2000/svg">
<rect width="512" height="512" rx="50" fill="#3178C6"/>
<path d="M317.219 354.633V380.509C325.475 384.937 334.913 388.199 345.533 390.295C356.153 392.391 367.301 393.439 378.977 393.439C390.329 393.439 400.845 392.235 410.525 389.827C420.205 387.419 428.513 383.667 435.449 378.571C442.385 373.475 447.793 366.955 451.673 359.011C455.553 351.067 457.493 341.507 457.493 330.331C457.493 322.699 456.497 315.899 454.505 309.931C452.513 303.963 449.529 298.555 445.553 293.707C441.577 288.859 436.689 284.431 430.889 280.423C425.089 276.415 418.413 272.563 410.861 268.867C405.061 266.043 399.777 263.375 394.009 260.863C388.241 258.351 383.145 255.839 378.721 253.327C374.297 250.815 370.729 248.251 368.017 245.635C365.305 243.019 363.949 240.195 363.949 237.163C363.949 234.443 364.737 232.035 366.313 229.939C367.889 227.843 370.081 226.067 372.889 224.611C375.697 223.155 379.065 222.043 382.993 221.275C386.921 220.507 391.241 220.123 395.953 220.123C399.881 220.123 403.913 220.443 408.049 221.083C412.185 221.723 416.289 222.707 420.361 224.035C424.433 225.363 428.401 227.011 432.265 228.979C436.129 230.947 439.801 233.163 443.281 235.627V211.467C435.665 208.691 427.601 206.659 419.089 205.371C410.577 204.083 400.909 203.439 390.085 203.439C378.925 203.439 368.625 204.707 359.185 207.243C349.745 209.779 341.565 213.595 334.645 218.691C327.725 223.787 322.253 230.115 318.229 237.675C314.205 245.235 312.193 253.947 312.193 263.811C312.193 276.351 315.561 287.207 322.297 296.379C329.033 305.551 339.237 313.503 352.909 320.235C358.901 323.059 364.641 325.763 370.129 328.347C375.617 330.931 380.489 333.475 384.745 335.979C389.001 338.483 392.441 341.067 395.065 343.731C397.689 346.395 399.001 349.315 399.001 352.491C399.001 355.107 398.245 357.459 396.733 359.547C395.221 361.635 393.069 363.411 390.277 364.875C387.485 366.339 384.117 367.451 380.173 368.211C376.229 368.971 371.837 369.351 367.997 369.351C358.701 369.351 349.533 367.675 340.493 364.323C331.453 360.971 323.669 357.747 317.219 354.633ZM233.461 220.891H285.217V204.207H157.577V220.891H209.077V392.671H233.461V220.891Z" fill="white"/>
</svg> 